<svg id="Capa_1" enable-background="new 0 0 512 512" height="512" viewBox="0 0 512 512" width="512" xmlns="http://www.w3.org/2000/svg"><g><path d="m475.965 321h-465.965v-190h278.596c8.698 0 17.16 2.835 24.102 8.077l178.955 135.111c6.516 4.92 10.347 12.612 10.347 20.777 0 14.379-11.656 26.035-26.035 26.035z" fill="#ff7b79"/><g fill="#fff"><path d="m80 256h-70v-60h50z"/><path d="m185 256h-60l-20-60h60z"/><path d="m467.563 256h-237.563l-20-60h178.093z"/><path d="m482 361h-472v-40h472c11.046 0 20 8.954 20 20 0 11.046-8.954 20-20 20z"/><circle cx="240" cy="351" r="30"/><circle cx="300" cy="351" r="30"/></g><g><path d="m89.03 141c5.52 0 10-4.49 10-10s-4.48-10-10-10c-5.51 0-9.99 4.49-9.99 10s4.48 10 9.99 10z"/><path d="m96.888 190.153c-1.879 2.607-2.391 5.959-1.375 9.009l20 60c1.361 4.084 5.183 6.838 9.487 6.838h60c3.214 0 6.233-1.545 8.112-4.153 1.879-2.607 2.391-5.959 1.375-9.009l-20-60c-1.362-4.084-5.183-6.838-9.487-6.838h-60c-3.214 0-6.233 1.545-8.112 4.153zm60.904 15.847 13.333 40h-38.918l-13.333-40z"/><path d="m502.605 319.227c6.067-6.645 9.395-15.197 9.395-24.257 0-5.55-1.31-11.1-3.78-16.07-2.47-4.96-6.12-9.35-10.54-12.689l-178.96-135.111c-4.32-3.26-9.11-5.79-14.24-7.51s-10.47-2.59-15.88-2.59h-154.56c-5.52 0-10.01 4.49-10.01 10s4.49 10 10.01 10h.01 154.55c6.48 0 12.9 2.149 18.07 6.06l51.578 38.94h-148.248c-3.214 0-6.233 1.545-8.112 4.153-1.879 2.607-2.391 5.959-1.375 9.009l20 60c1.361 4.084 5.183 6.838 9.487 6.838h234.212l21.418 16.17c3.99 3.01 6.37 7.79 6.37 12.8-.02 8.82-7.21 16.01-16.03 16.03h-455.97v-45h60c3.214 0 6.233-1.545 8.112-4.153 1.879-2.607 2.391-5.96 1.375-9.009l-20-60c-1.362-4.084-5.183-6.838-9.487-6.838h-40v-45h24.03c5.52 0 10-4.49 10-10s-4.48-10-10-10h-34.03c-2.63 0-5.21 1.069-7.07 2.93-1.86 1.86-2.93 4.44-2.93 7.07v230c0 5.522 4.477 10 10 10h195.381c6.927 11.944 19.846 20 34.619 20 11.938 0 22.665-5.264 30-13.585 7.335 8.321 18.062 13.585 30 13.585 14.773 0 27.691-8.056 34.619-20h147.381c8.01 0 15.543-3.121 21.211-8.79 5.667-5.668 8.789-13.2 8.789-21.21 0-8.567-3.616-16.302-9.395-21.773zm-265.397-73.227-13.333-40h160.865l52.982 40zm-184.416-40 13.333 40h-46.125v-40zm-32.792 145v-20h185.381c-3.415 5.888-5.381 12.717-5.381 20zm220 20c-11.028 0-20-8.972-20-20s8.972-20 20-20 20 8.972 20 20-8.972 20-20 20zm60 0c-11.028 0-20-8.972-20-20s8.972-20 20-20 20 8.972 20 20-8.972 20-20 20zm189.069-22.932c-1.89 1.891-4.401 2.932-7.069 2.932h-142c0-7.283-1.966-14.112-5.381-20h147.381c5.514 0 10 4.486 10 10 0 2.668-1.041 5.179-2.931 7.068z"/></g></g></svg>